<?xml version="1.0" encoding="UTF-8"?>
<!DOCTYPE svg PUBLIC "-//W3C//DTD SVG 1.1//EN" "http://www.w3.org/Graphics/SVG/1.1/DTD/svg11.dtd">
<!-- Creator: CorelDRAW 2018 (64 Bit) -->
<svg xmlns="http://www.w3.org/2000/svg" xml:space="preserve" width="297mm" height="210mm" version="1.1" style="shape-rendering:geometricPrecision; text-rendering:geometricPrecision; image-rendering:optimizeQuality; fill-rule:evenodd; clip-rule:evenodd"
viewBox="0 0 29700 21000"
 xmlns:xlink="http://www.w3.org/1999/xlink">
 <defs>
  <style type="text/css">
   <![CDATA[
    .fil0 {fill:#1D2759;fill-rule:nonzero}
   ]]>
  </style>
 </defs>
 <g id="Camada_x0020_1">
  <metadata id="CorelCorpID_0Corel-Layer"/>
  <g id="_8649152016">
   <path class="fil0" d="M5302.38 8463.89c282.94,-562.15 639.52,-843.34 1069.82,-843.34 486.37,0 854.72,333.89 1104.87,1001.57 250.24,667.79 375.34,1562.39 375.34,2683.75 0,2420.81 -493.44,3631.1 -1480.21,3631.1 -996.18,0 -1494.21,-1198.33 -1494.21,-3594.87 0,-1356.59 141.45,-2315.98 424.39,-2878.21zm-2998.57 6407.51c442.48,978.2 1023.67,1711.48 1743.61,2199.82 719.92,488.41 1495.41,740.04 2326.56,755.15 608.68,0 1194.48,-133.3 1757.64,-400.16 563.01,-266.74 1066.94,-670.74 1511.79,-1211.88 444.83,-541.03 797.17,-1226.1 1057.04,-2055.19 259.87,-828.89 389.78,-1780.04 389.78,-2853.27 0,-1021.92 -114.19,-1940.54 -342.55,-2756.07 -228.34,-815.46 -553.3,-1507.29 -974.89,-2075.54 -421.56,-568.24 -921.56,-1000.79 -1500,-1297.79 -578.57,-296.88 -1212.07,-445.4 -1900.59,-445.4 -1439.25,39.26 -2575.43,637.62 -3408.64,1795.2 -404.89,584.84 -726.71,1278.95 -965.37,2082.33 -238.75,803.35 -358.05,1714.53 -358.05,2733.5 0,1374.65 221.18,2551.08 663.67,3529.3z"/>
   <polygon class="fil0" points="18370.89,17669.36 18370.89,14558.3 14486.87,14558.3 14486.87,4962.91 11438.73,4962.91 11438.73,17669.36 "/>
   <path class="fil0" d="M23782.01 4935.78l-1978.94 0 -3123.05 12760.74 2501.32 0 562.06 -2500.63 2634.82 0 590.23 2500.63 3091.44 0 -2721.22 -11232.25 -1556.66 0 0 -1528.49zm-1504.65 7483.73l804.55 -3649.2 790.4 3649.2 -1594.95 0z"/>
   <path class="fil0" d="M27079.25 4731.07c0,-860.21 -697.35,-1557.44 -1557.47,-1557.44 -840.78,0 -1524.07,666.51 -1554.6,1499.72l-2.95 0 0 1615.18 1615.19 0 0 -2.84c833.2,-30.64 1499.83,-713.93 1499.83,-1554.62zm-641.77 0c0,514.84 -409.99,932.08 -915.7,932.08 -505.8,0 -915.78,-417.24 -915.78,-932.08 0,-514.82 409.98,-932.06 915.78,-932.06 505.71,0 915.7,417.24 915.7,932.06z"/>
  </g>
 </g>
</svg>
